<?xml version="1.0" standalone="no"?>
<!DOCTYPE svg>
<svg version="1.0" xmlns="http://www.w3.org/2000/svg" width="512.000000pt" height="512.000000pt"
  viewBox="0 0 512.000000 512.000000" preserveAspectRatio="xMidYMid meet">
  <g transform="translate(0.000000,512.000000) scale(0.100000,-0.100000)" fill="#000000" stroke="none">
    <path d="M2335 4797 c-77 -29 -251 -93 -387 -142 -202 -73 -248 -92 -250 -109
-3 -17 -5 -16 -18 8 -13 26 -13 29 5 42 11 7 25 18 31 23 7 5 14 8 17 5 9 -9
57 8 57 21 0 18 -55 38 -85 31 -37 -9 -65 -41 -66 -76 -1 -16 -2 -35 -3 -41
-1 -9 -86 -45 -238 -101 -16 -5 -28 -13 -28 -17 0 -3 55 -29 122 -56 67 -28
125 -51 129 -53 4 -2 8 29 11 68 3 61 7 74 32 98 l29 27 -24 -32 c-16 -24 -24
-51 -27 -95 -2 -35 -8 -67 -13 -72 -5 -6 -9 -27 -9 -48 0 -21 -4 -38 -10 -38
-5 0 -15 -10 -21 -22 -9 -17 -8 -28 6 -54 14 -26 16 -45 11 -96 -7 -59 -9 -65
-36 -75 -38 -14 -55 -55 -38 -91 11 -23 9 -37 -14 -107 -54 -161 -47 -241 21
-243 l31 -1 2 72 2 72 3 -68 c4 -73 15 -87 52 -67 17 8 21 21 22 63 l2 52 7
-40 7 -40 1 35 c1 19 -3 82 -8 140 -7 86 -6 108 6 121 21 24 17 57 -12 86 -24
24 -25 29 -19 98 6 60 11 74 26 78 23 6 26 59 4 77 -8 7 -15 29 -15 50 l0 38
138 -60 c75 -33 138 -61 139 -62 2 -2 -15 -43 -38 -94 -61 -138 -111 -362 -81
-362 198 -3 333 -39 467 -125 38 -25 75 -45 81 -45 6 0 49 18 96 40 208 97
435 147 555 122 83 -17 83 -17 83 159 l0 148 28 19 c15 10 101 61 192 112 91
51 219 123 285 161 66 37 132 73 148 80 15 7 27 15 27 19 0 10 -269 99 -750
250 -212 66 -418 132 -458 145 -40 14 -76 25 -80 25 -4 -1 -70 -24 -147 -53z
m273 -156 c50 -17 115 -42 144 -57 147 -74 287 -197 307 -272 12 -41 14 -218
5 -299 l-7 -53 -55 51 c-109 100 -222 164 -389 222 -185 65 -426 104 -580 94
-46 -2 -83 -3 -83 0 0 2 9 21 20 42 46 91 202 195 405 270 101 38 122 38 233
2z m-318 -382 c163 -24 339 -81 481 -156 118 -62 178 -109 218 -171 19 -29 36
-50 39 -48 3 3 -3 17 -12 30 -23 36 -20 43 8 17 23 -22 44 -110 31 -131 -3 -5
-23 -3 -47 6 -118 41 -307 1 -605 -131 l-62 -28 -83 41 c-103 51 -215 81 -336
89 l-93 6 7 41 c22 136 95 299 175 395 l54 63 80 -7 c44 -4 109 -11 145 -16z" />
    <path d="M2505 3994 c-136 -49 -149 -50 -252 -20 -96 28 -200 47 -248 45 -16
-1 2 -7 40 -13 90 -16 133 -30 227 -77 43 -22 86 -39 97 -39 11 0 80 31 153
70 150 79 144 92 -17 34z" />
    <path d="M1933 4003 c9 -2 23 -2 30 0 6 3 -1 5 -18 5 -16 0 -22 -2 -12 -5z" />
    <path d="M3348 3983 c-18 -5 -43 -51 -53 -98 -3 -16 4 -5 17 25 22 51 26 55
60 58 60 5 385 -151 619 -297 61 -38 105 -72 100 -76 -20 -12 -12 -54 14 -71
20 -13 31 -15 49 -6 30 13 49 -5 71 -67 16 -48 77 -382 71 -389 -14 -14 -50
17 -83 71 -91 151 -246 382 -290 430 -47 52 -47 51 16 -8 65 -62 155 -177 256
-327 33 -48 61 -85 63 -83 2 2 -26 49 -63 105 -195 301 -305 403 -516 481 -57
21 -103 31 -144 32 -101 1 -141 -31 -208 -164 -25 -51 -51 -88 -65 -95 -23
-11 -22 -12 13 -16 l37 -4 43 91 c43 93 83 139 132 151 68 17 237 -36 346
-109 34 -23 82 -68 107 -99 40 -50 210 -309 269 -409 l21 -36 -29 5 c-44 6
-147 -24 -197 -59 -27 -18 -56 -51 -75 -85 -17 -30 -33 -54 -34 -54 -2 0 -45
26 -96 59 l-91 59 -3 68 c-8 182 -151 351 -300 354 -16 0 -45 9 -64 21 -43 26
-114 34 -168 20 -38 -10 -43 -15 -43 -41 l0 -29 41 14 c43 15 81 19 91 9 9 -8
-11 -71 -45 -144 -21 -46 -52 -87 -107 -141 -160 -159 -341 -204 -541 -135
-173 60 -320 194 -342 312 -3 18 -3 34 0 37 3 4 24 -5 47 -18 83 -49 212 -67
286 -42 31 11 35 16 35 46 0 31 7 38 127 123 71 49 128 92 128 95 0 6 -9 1
-158 -101 l-133 -91 -92 1 c-81 0 -101 4 -170 33 -79 34 -79 34 -130 18 -29
-9 -79 -23 -112 -33 -80 -22 -153 -71 -190 -125 -16 -24 -50 -64 -75 -89 -121
-119 -152 -371 -81 -657 71 -287 190 -512 371 -702 l71 -74 36 36 c19 21 40
37 46 37 6 0 -9 -20 -33 -45 l-45 -46 80 -75 c44 -41 101 -85 127 -97 25 -12
49 -31 52 -42 13 -45 6 -76 -26 -110 -34 -36 -197 -104 -615 -255 -89 -33
-214 -80 -278 -106 -138 -55 -149 -53 -187 28 -48 102 -196 514 -263 733 -36
121 -89 294 -117 385 -28 91 -84 253 -125 360 -46 121 -71 200 -66 208 22 35
332 152 607 227 88 24 164 49 170 55 34 34 -373 -80 -592 -167 -63 -24 -115
-43 -117 -41 -1 2 -5 69 -9 150 l-7 148 45 22 c25 12 48 29 52 37 3 9 9 62 13
119 7 97 9 104 39 135 18 18 32 42 32 54 0 13 10 24 28 31 36 15 165 46 276
68 l89 17 19 -22 c10 -13 18 -29 18 -36 0 -7 -33 -31 -72 -52 -162 -88 -419
-258 -426 -283 -3 -10 3 -8 19 6 39 36 247 168 384 244 l127 72 27 -25 c14
-14 45 -34 68 -46 46 -23 49 -29 83 -186 12 -55 26 -107 31 -115 11 -17 10
-14 -21 139 -29 141 -32 147 -89 175 -27 14 -56 34 -63 44 -7 11 -23 22 -34
26 -12 4 -27 20 -34 36 -11 26 -17 30 -54 30 -40 0 -305 -58 -358 -79 -17 -6
-30 -21 -34 -38 -4 -15 -19 -42 -35 -60 -19 -22 -29 -48 -34 -86 -7 -53 -7
-53 -51 -65 -24 -7 -53 -21 -65 -33 -19 -19 -21 -29 -15 -83 l6 -62 -35 -17
c-19 -9 -35 -24 -35 -33 0 -9 21 -68 46 -131 25 -63 44 -116 42 -117 -2 -2
-20 -13 -40 -25 -30 -18 -38 -29 -38 -51 0 -23 -8 -33 -42 -52 -68 -37 -69
-56 -14 -205 27 -70 126 -353 221 -628 95 -275 196 -560 224 -633 l50 -133
-54 -54 c-70 -70 -93 -138 -75 -216 33 -137 184 -182 370 -113 76 29 240 115
288 151 41 31 72 80 72 114 0 25 8 28 258 107 141 44 291 90 332 102 129 36
133 39 125 74 -6 31 -7 44 -2 129 1 23 -1 65 -6 93 l-7 51 67 6 c46 5 90 17
140 41 l73 35 0 -27 c1 -75 20 -350 26 -369 8 -27 21 -30 28 -5 3 9 10 112 16
227 6 116 13 215 15 221 2 7 46 45 97 87 142 114 294 278 381 408 70 107 134
174 210 222 32 20 59 61 122 185 l47 91 -7 89 c-7 82 -5 97 20 173 15 46 29
85 30 87 2 2 44 -25 94 -59 l91 -63 0 -53 c0 -30 9 -78 19 -107 l19 -54 -23
-49 c-38 -78 -55 -187 -55 -343 l0 -141 -22 7 c-13 4 -29 9 -35 11 -7 3 -13 1
-13 -5 0 -5 7 -13 16 -16 13 -5 11 -11 -14 -35 -36 -33 -48 -71 -32 -101 10
-18 19 -21 56 -18 28 2 44 -1 44 -8 0 -25 -84 -179 -118 -216 -45 -50 -80 -68
-133 -68 -91 0 -148 72 -149 185 0 75 29 140 93 210 36 40 48 48 58 38 20 -20
53 -15 77 10 27 29 28 68 2 92 -28 25 -78 13 -138 -35 -111 -87 -174 -198
-174 -308 -1 -88 15 -137 66 -205 41 -55 42 -57 40 -134 -2 -85 -11 -143 -23
-143 -5 0 -57 23 -117 51 -129 61 -209 79 -276 60 -129 -36 -185 -163 -152
-340 18 -97 13 -129 -24 -164 -52 -49 -117 -71 -471 -152 -259 -59 -457 -119
-537 -161 -137 -72 -178 -183 -103 -278 90 -114 535 -92 836 41 192 86 306
171 571 428 224 217 329 369 365 530 9 38 23 74 30 80 8 6 23 28 33 49 19 37
20 38 80 40 46 2 73 9 108 30 130 76 230 315 185 441 -10 26 -8 36 10 65 l20
34 -25 27 -26 27 22 40 c21 37 25 40 48 31 18 -7 28 -6 34 3 8 14 82 182 91
211 5 14 19 17 81 17 l74 0 12 -65 c10 -51 10 -79 1 -125 -21 -103 -131 -317
-250 -485 -31 -44 -62 -91 -68 -105 -6 -14 -59 -77 -118 -140 -187 -200 -266
-321 -301 -460 -27 -109 -4 -205 55 -230 62 -25 122 10 170 100 18 33 47 80
66 104 31 40 32 46 19 65 -9 12 -21 21 -29 21 -20 0 -79 -76 -112 -144 -32
-68 -54 -87 -80 -70 -15 9 -18 26 -18 85 1 127 56 220 264 448 118 128 172
199 156 202 -3 1 -10 2 -16 3 -7 0 -16 8 -22 17 -8 12 -4 25 17 52 26 34 30
36 49 22 19 -13 22 -12 44 18 31 41 143 242 143 256 0 5 -7 14 -16 19 -14 8
-15 14 -5 45 17 51 31 59 66 41 16 -8 38 -24 48 -35 20 -21 67 -25 85 -7 18
18 15 69 -6 108 -50 92 -47 90 -60 72 -8 -13 -8 -10 0 13 8 24 6 47 -10 110
l-20 80 53 47 c70 63 98 123 99 213 0 55 -4 80 -23 115 -29 56 -104 136 -151
160 -34 17 -36 21 -48 101 -29 192 -55 307 -78 354 -47 96 -69 125 -93 125 -9
0 -70 34 -136 76 -171 107 -599 314 -627 303 -2 -1 -10 -3 -20 -6z m210 -240
c-16 -2 -40 -2 -55 0 -16 2 -3 4 27 4 30 0 43 -2 28 -4z m-88 -7 c0 -2 -7 -7
-16 -10 -8 -3 -12 -2 -9 4 6 10 25 14 25 6z m-61 -43 c-40 -47 -42 -49 -34
-33 10 19 47 60 53 60 3 0 -5 -12 -19 -27z m321 2 c14 -8 21 -14 15 -14 -5 0
-21 6 -35 14 -14 8 -20 14 -15 14 6 0 21 -6 35 -14z m-402 -149 c-12 -25 -25
-46 -29 -46 -4 0 5 22 19 49 33 62 41 60 10 -3z m42 -155 c0 -5 -6 -11 -12
-13 -7 -3 9 -10 36 -17 108 -27 169 -80 206 -179 22 -58 25 -98 10 -136 -8
-23 -13 -25 -35 -16 -31 12 -33 -3 -3 -24 21 -15 21 -16 -37 -78 -75 -81 -482
-477 -563 -546 -34 -30 -62 -48 -62 -40 0 7 15 49 34 93 122 291 170 400 177
403 4 2 5 10 2 19 -4 10 -2 14 4 10 12 -8 17 3 94 196 59 148 71 184 44 137
-8 -14 -14 -20 -14 -15 0 14 28 63 29 50 0 -13 20 16 20 30 0 6 -5 3 -10 -5
-19 -29 -10 -5 20 54 17 32 30 65 30 72 0 8 7 14 15 14 8 0 15 -4 15 -9z
m-1147 -266 c66 -152 229 -491 328 -683 151 -291 161 -326 175 -607 l6 -130
-53 -32 c-66 -38 -167 -73 -213 -73 -27 0 -35 4 -40 24 -3 14 -69 84 -147 158
-271 256 -384 449 -450 771 -25 123 -39 312 -30 399 4 39 3 64 -2 61 -19 -12
14 37 35 51 30 21 51 20 73 -4 14 -15 29 -20 58 -18 31 2 36 4 24 13 -13 9 -8
16 28 39 53 33 102 87 111 122 10 40 -10 74 -44 74 -62 0 -182 -105 -182 -159
0 -25 -4 -29 -35 -33 -19 -2 -35 -1 -35 4 0 22 45 122 67 148 35 43 107 82
183 101 l65 17 22 -82 c12 -44 37 -117 56 -161z m970 -103 c-31 -78 -58 -140
-60 -138 -2 2 22 67 53 145 31 78 58 140 60 138 2 -2 -22 -67 -53 -145z
m-2419 6 c3 -29 7 -89 10 -133 l5 -80 -26 65 c-14 36 -33 87 -43 115 l-18 50
26 17 c15 10 30 18 34 18 4 0 9 -24 12 -52z m3533 -46 c82 -42 143 -138 143
-224 0 -52 -44 -132 -85 -153 -18 -11 -32 -22 -30 -25 2 -3 -29 -5 -68 -5
-120 3 -216 56 -261 147 -32 63 -33 117 -5 175 49 101 195 141 306 85z m-2529
-57 c-21 -130 22 -441 87 -624 17 -50 19 -62 5 -41 -22 34 -89 262 -105 359
-19 111 -16 263 5 334 16 55 20 42 8 -28z m1838 1 c-9 -31 -21 -56 -27 -56 -6
0 -9 4 -7 8 2 4 12 31 22 60 25 67 33 59 12 -12z m-61 -55 c-8 -16 -29 -40
-47 -52 -44 -31 -50 -39 -113 -156 -66 -120 -84 -169 -93 -254 l-7 -64 -123
-6 c-93 -4 -127 -9 -139 -21 -9 -10 -18 -46 -23 -96 -5 -44 -12 -101 -15 -128
-4 -27 -5 -47 -2 -44 3 3 13 55 21 115 21 139 22 140 156 150 56 4 103 5 106
2 8 -8 -91 -164 -144 -227 -76 -92 -165 -179 -175 -173 -6 3 -7 1 -3 -5 3 -5
-20 -33 -51 -62 l-58 -51 -3 43 c-6 70 17 334 32 378 9 28 36 61 87 108 155
142 516 482 559 526 24 25 46 46 47 46 2 0 -3 -13 -12 -29z m-494 -78 c-63
-156 -132 -318 -141 -327 -7 -7 -10 -4 -10 7 0 9 -11 51 -25 94 l-25 78 102
97 c57 54 106 98 110 98 4 0 -1 -21 -11 -47z m-553 -33 c44 -33 87 -71 97 -86
16 -26 16 -30 -6 -105 -13 -43 -27 -79 -30 -79 -4 0 -142 280 -157 321 -8 21
22 5 96 -51z m1475 -66 c20 -39 80 -92 126 -112 20 -8 70 -18 111 -22 l75 -7
-67 -1 c-95 -3 -165 25 -221 88 -28 31 -49 66 -56 94 -15 60 -13 81 3 31 7
-22 20 -54 29 -71z m-422 55 c20 -10 20 -10 0 -27 -24 -20 -111 -170 -111
-190 0 -10 7 -12 28 -7 38 9 53 25 92 99 37 69 50 81 50 44 0 -23 -96 -208
-114 -220 -43 -29 -126 23 -126 79 0 30 70 185 97 216 18 19 55 22 84 6z
m-2742 -424 c151 -475 367 -1113 424 -1253 41 -101 47 -126 36 -133 -26 -16
-34 -9 -66 64 -17 39 -54 122 -81 182 -28 61 -116 304 -196 540 -81 237 -181
522 -223 635 -41 113 -76 218 -77 234 -1 23 6 35 33 53 27 18 37 21 42 11 4
-7 53 -157 108 -333z m3229 211 c23 -14 42 -34 42 -42 0 -23 -78 -204 -100
-232 -10 -12 -30 -54 -45 -92 -27 -71 -48 -99 -60 -81 -3 6 -6 81 -7 168 -1
160 11 244 47 330 l15 36 33 -30 c17 -17 51 -42 75 -57z m-408 -355 c-20 -6
-25 -14 -25 -38 0 -17 -3 -29 -7 -26 -5 2 -8 13 -8 24 0 10 -4 19 -9 19 -17 0
-101 -83 -132 -131 -36 -54 -48 -64 -25 -21 39 75 164 183 210 181 18 -1 17
-2 -4 -8z m-1633 -146 c33 -49 82 -117 109 -150 66 -81 84 -109 39 -60 -60 64
-149 185 -185 250 -44 80 -34 69 37 -40z m1917 28 c-21 -31 -50 -63 -64 -71
-17 -11 -11 -2 16 26 22 23 49 58 59 77 11 19 21 32 24 29 2 -2 -13 -30 -35
-61z m-56 -3 c7 -11 11 -20 9 -20 -2 0 -12 9 -22 20 -10 11 -14 20 -9 20 5 0
15 -9 22 -20z m-30 -22 c17 -17 -14 -48 -50 -48 -32 0 -34 7 -12 38 17 24 43
29 62 10z m120 -84 l-3 -59 -5 67 c-3 37 -1 63 3 59 4 -4 7 -35 5 -67z m-36
-37 c-13 -81 -32 -123 -83 -181 -53 -60 -130 -97 -211 -101 -59 -4 -60 -3 -13
4 110 16 177 86 240 256 47 125 85 137 67 22z m-495 -59 c-2 -13 -4 -5 -4 17
-1 22 1 32 4 23 2 -10 2 -28 0 -40z m503 -49 c-30 -80 -90 -160 -145 -194 -42
-26 -57 -30 -119 -29 -45 0 -84 6 -106 17 -19 10 -26 14 -15 11 85 -27 172
-10 255 51 57 42 126 140 137 193 4 20 9 30 10 21 2 -9 -5 -40 -17 -70z
m-1546 -214 c-9 -14 -21 -25 -27 -25 -6 0 0 11 13 25 13 14 25 25 27 25 2 0
-4 -11 -13 -25z m918 -252 l117 -56 -21 -41 c-38 -75 -110 -160 -268 -317
-235 -233 -384 -341 -587 -425 -155 -64 -430 -114 -553 -99 -124 14 -170 37
-170 85 0 80 196 160 599 245 359 75 457 110 524 184 56 62 64 103 43 220 -25
142 -4 213 75 254 50 26 106 15 241 -50z m-862 23 c0 -32 -24 -78 -49 -90 -14
-8 -143 -48 -286 -89 -143 -42 -315 -94 -382 -117 -67 -22 -126 -40 -130 -40
-35 1 319 123 495 170 91 25 106 37 23 19 -29 -6 -54 -9 -57 -7 -2 3 60 27
138 54 78 27 163 63 188 80 52 36 60 39 60 20z m-1300 -414 c-36 -36 -53 -94
-38 -130 l10 -27 16 25 c10 13 28 37 40 52 l24 28 21 -31 c40 -58 39 -58 247
10 105 35 194 61 197 58 10 -10 -114 -84 -221 -130 -182 -80 -293 -85 -336
-14 -24 39 -25 66 -5 114 18 44 43 73 61 73 7 0 0 -13 -16 -28z" />
    <path d="M1934 2975 c-45 -29 -85 -58 -89 -65 -5 -8 70 -90 211 -232 219 -220
556 -539 577 -547 32 -12 -58 84 -389 411 -200 198 -364 364 -364 367 0 4 29
29 65 55 54 40 86 68 73 65 -2 0 -40 -24 -84 -54z" />
    <path d="M4167 2862 c-37 -41 -9 -122 41 -122 44 0 72 26 72 66 0 63 -74 100
-113 56z" />
    <path d="M2982 2020 c0 -14 2 -19 5 -12 2 6 2 18 0 25 -3 6 -5 1 -5 -13z" />
    <path d="M1395 3334 c-92 -47 -314 -167 -390 -212 -33 -19 -61 -36 -62 -37 -1
0 4 -23 12 -50 l14 -50 -2 48 -2 49 150 83 c83 45 202 110 265 144 122 64 134
85 15 25z" />
    <path d="M1405 3156 c-55 -24 -172 -77 -260 -118 -108 -51 -162 -72 -167 -64
-6 8 -8 8 -8 -1 0 -27 26 -22 133 28 61 29 182 83 267 121 85 38 156 71 159
73 14 14 -36 -1 -124 -39z" />
    <path d="M1153 2310 c-13 -5 -23 -11 -23 -14 0 -7 40 6 46 15 6 10 6 10 -23
-1z" />
    <path d="M1235 2191 c-22 -11 -35 -19 -30 -19 14 -1 93 36 80 37 -5 0 -28 -8
-50 -18z" />
    <path d="M1245 2045 c-16 -7 -23 -14 -14 -14 8 -1 24 6 35 14 24 18 18 18 -21
0z" />
    <path d="M4311 1819 c-7 -24 -31 -90 -53 -147 -29 -76 -38 -110 -33 -132 7
-34 -6 -60 -88 -170 -46 -62 -46 -63 -7 -20 22 25 57 71 78 102 30 47 42 58
64 58 29 0 51 25 62 70 5 17 0 13 -14 -13 -18 -32 -26 -38 -48 -35 -24 3 -27
7 -25 38 1 19 20 88 43 153 23 65 40 123 38 129 -2 6 -10 -9 -17 -33z" />
    <path d="M3056 1832 c-3 -5 -19 -65 -36 -133 -16 -68 -33 -135 -36 -149 -4
-14 -4 -23 -1 -19 9 7 89 301 83 306 -2 2 -7 0 -10 -5z" />
    <path d="M1455 1720 c-3 -6 1 -7 9 -4 18 7 21 14 7 14 -6 0 -13 -4 -16 -10z" />
    <path d="M1414 1704 c-18 -14 -18 -15 4 -4 12 6 22 13 22 15 0 8 -5 6 -26 -11z" />
    <path d="M1585 1625 c-22 -7 -31 -13 -20 -13 11 0 36 6 55 13 45 17 17 18 -35
0z" />
    <path d="M3958 1217 c-59 -43 -69 -65 -43 -87 12 -10 26 -3 80 41 41 33 64 58
60 67 -3 7 -5 16 -5 18 0 15 -44 -3 -92 -39z" />
  </g>
</svg>